<svg width="304" height="152" viewBox="0 0 304 152" fill="none" xmlns="http://www.w3.org/2000/svg">
<path d="M113.271 65.2188C113.061 65.2165 92.1825 64.8623 76.0388 55.637C62.3952 47.8423 52.2913 46.8223 45.9974 52.6056C45.2584 53.4099 44.666 54.3374 44.2471 55.3461C42.6952 55.2175 41.1403 55.1282 39.5838 55.0781C17.8534 53.1921 6.20969 59.616 4.26619 61.8356C1.98459 64.4438 4.13509 65.7467 6.67774 64.4437C9.22154 63.1396 12.4806 59.8138 24.0853 57.3367C30.4712 55.974 38.2326 55.974 43.9262 56.2488C43.6164 57.3094 43.5726 58.4299 43.7986 59.5114C43.8101 59.5562 44.7427 63.4444 48.3997 63.5088C48.4768 63.5111 50.2696 63.5272 50.9999 62.4048C51.1781 62.13 51.2598 61.8137 51.2782 61.4687C51.3437 61.1375 51.3598 60.7223 51.2552 60.1807C50.9562 58.6397 49.4773 58.8363 49.1185 59.6126C48.7608 60.39 49.4773 61.1214 50.165 60.9121C50.165 60.9121 50.2524 60.8857 50.3628 60.896C50.4663 61.3215 50.4433 61.6722 50.2765 61.9321C49.8878 62.5301 48.7999 62.6486 48.4135 62.6428C45.4396 62.5911 44.6726 59.4573 44.6415 59.3228C44.4092 58.2245 44.5461 57.1907 44.829 56.2948C45.0877 56.3086 45.3419 56.3248 45.5926 56.3409C48.2111 56.6042 50.7446 56.9814 53.094 57.4839C65.6348 60.168 84.1187 63.5272 84.305 63.5605C98.3948 65.8997 110.982 65.9985 111.107 65.9997C111.123 65.9997 111.137 65.9928 111.153 65.9917C112.463 66.0722 113.223 66.0837 113.262 66.0837C113.371 66.0773 113.474 66.0297 113.55 65.9504C113.626 65.8712 113.669 65.7662 113.67 65.6566C113.672 65.547 113.632 65.4409 113.558 65.3597C113.484 65.2785 113.383 65.2281 113.274 65.2188H113.271ZM84.4522 62.7084C84.274 62.675 65.8027 59.3194 53.2757 56.6387C50.7411 56.0971 48.0007 55.6969 45.159 55.4312C45.5246 54.6275 46.0109 53.8845 46.6011 53.2278C52.5673 47.7458 62.3331 48.8026 75.6099 56.3914C83.3321 60.8028 92.1135 63.2086 99.2539 64.5208C94.9425 64.1631 89.8089 63.6008 84.4534 62.7118V62.7084H84.4522Z" fill="#FFC73E"/>
<path d="M191.3 65.657C191.301 65.7715 191.348 65.8807 191.43 65.9607C191.512 66.0406 191.622 66.0849 191.737 66.0836C191.776 66.0836 192.536 66.0698 193.847 65.9916C193.862 65.9928 193.876 66.0008 193.891 66.0008C194.016 66.0008 206.603 65.8996 220.693 63.5605C220.879 63.5272 239.363 60.168 251.904 57.4839C254.253 56.9814 256.787 56.6042 259.405 56.3397L260.17 56.2948C260.453 57.1918 260.591 58.2245 260.355 59.3228C260.324 59.4562 259.558 62.5934 256.583 62.6428C256.197 62.6486 255.109 62.5301 254.72 61.9321C254.552 61.6722 254.53 61.3203 254.635 60.896C254.701 60.8892 254.768 60.8946 254.833 60.9121C255.52 61.1225 256.237 60.39 255.879 59.6126C255.52 58.8363 254.042 58.642 253.744 60.1807C253.639 60.7212 253.655 61.1375 253.721 61.4687C253.737 61.8137 253.817 62.1322 253.997 62.4059C254.728 63.5272 256.521 63.5099 256.598 63.5099C260.254 63.4455 261.19 59.5574 261.199 59.5114C261.423 58.4297 261.379 57.3095 261.07 56.2488C266.765 55.9728 274.529 55.9728 280.914 57.3379C292.519 59.8138 295.78 63.1396 298.322 64.4449C300.864 65.7478 303.017 64.4449 300.734 61.8355C298.79 59.6149 287.148 53.1921 265.415 55.0781C263.859 55.1283 262.304 55.2176 260.753 55.3461C260.086 53.7384 259.082 52.6861 259 52.6056C252.709 46.8211 242.601 47.8423 228.959 55.637C212.815 64.8635 191.936 65.2165 191.728 65.2188C191.671 65.2194 191.615 65.2312 191.563 65.2535C191.51 65.2758 191.463 65.3082 191.423 65.3487C191.383 65.3893 191.352 65.4373 191.331 65.49C191.31 65.5427 191.299 65.5991 191.3 65.6558V65.657ZM205.745 64.5185C212.885 63.2063 221.667 60.8017 229.389 56.388C242.666 48.8014 252.432 47.7423 258.399 53.2255C258.414 53.2393 259.234 54.0995 259.839 55.4277C257 55.6945 254.257 56.0947 251.723 56.6352C239.195 59.317 220.725 62.6739 220.547 62.7061C215.19 63.595 210.056 64.1574 205.745 64.515V64.5185Z" fill="#FFC73E"/>
<path d="M1.44727 102.242H3.73242C3.73242 105.771 4.81152 108.818 6.96973 111.383C9.15332 113.922 11.7559 115.191 14.7773 115.191C16.9609 115.191 18.8398 114.442 20.4141 112.944C21.9883 111.446 22.7754 109.605 22.7754 107.422C22.7754 105.213 21.9883 103.359 20.4141 101.861C18.8652 100.338 16.9863 99.5762 14.7773 99.5762H12.1113V97.291H14.7773C16.7578 97.291 18.459 96.6182 19.8809 95.2725C21.3027 93.9268 22.0137 92.2637 22.0137 90.2832C22.0137 88.2773 21.3027 86.6016 19.8809 85.2559C18.4844 83.8848 16.7832 83.1992 14.7773 83.1992C13.0508 83.1992 11.4893 83.7324 10.0928 84.7988C8.72168 85.8398 7.74414 87.2109 7.16016 88.9121L5.25586 87.7695C6.06836 85.5098 7.51562 83.6816 9.59766 82.2852C11.6797 80.8633 14.041 80.1523 16.6816 80.1523C20.0332 80.1523 22.9023 81.1172 25.2891 83.0469C27.6758 84.9766 28.8691 87.3125 28.8691 90.0547C28.8691 92.0605 28.209 93.8125 26.8887 95.3105C25.5938 96.7832 23.9688 97.6973 22.0137 98.0527V98.4336C24.4766 98.8398 26.4824 99.9443 28.0312 101.747C29.6055 103.524 30.3926 105.594 30.3926 107.955C30.3926 111.027 28.9707 113.643 26.127 115.801C23.2832 117.934 19.8809 119 15.9199 119C11.959 119 8.55664 117.35 5.71289 114.049C2.86914 110.748 1.44727 106.812 1.44727 102.242ZM41.8184 82.4375V113.668C41.8184 114.709 42.3516 115.61 43.418 116.372C44.4844 117.108 45.7285 117.477 47.1504 117.477V119H29.6309V117.477C31.0527 117.477 32.2969 117.108 33.3633 116.372C34.4297 115.636 34.9629 114.734 34.9629 113.668V99.5762H30.3926V96.9102H34.9629V82.4375H30.3926V79.3906H50.1973V82.4375H41.8184ZM58.1953 86.2461V102.242C58.1953 104.756 58.9951 106.914 60.5947 108.717C62.1943 110.494 64.1875 111.383 66.5742 111.383C67.9707 111.383 69.2402 111.065 70.3828 110.431C71.5508 109.771 72.3125 108.945 72.668 107.955L58.1953 86.2461ZM97.8047 82.4375H58.957L75.1816 105.975C75.0293 104.908 74.9531 104.172 74.9531 103.766C74.9531 99.7539 76.8701 96.3389 80.7041 93.5205C84.5381 90.7021 89.2227 89.293 94.7578 89.293H97.8047V82.4375ZM112.658 82.4375H104.66V93.1016C101.918 92.0859 99.125 91.5781 96.2812 91.5781C92.2949 91.5781 88.8926 92.7715 86.0742 95.1582C83.2812 97.5195 81.8848 100.49 81.8848 104.07C81.8848 107.422 83.2305 110.177 85.9219 112.335C88.6133 114.493 92.0664 115.572 96.2812 115.572C100.801 115.572 104.736 113.922 108.088 110.621L109.23 112.145C107.402 114.328 105.143 116.017 102.451 117.21C99.7598 118.403 96.9414 119 93.9961 119C90.1113 119 86.5312 118.111 83.2559 116.334C79.9805 114.557 77.6445 112.221 76.248 109.326C74.8516 110.951 73.1504 112.208 71.1445 113.097C69.1641 113.985 67.1328 114.43 65.0508 114.43C61.2676 114.43 58.0303 113.236 55.3389 110.85C52.6729 108.438 51.3398 105.568 51.3398 102.242V82.4375H47.3027V79.3906H112.658V82.4375ZM215.49 82.4375H200.256V101.48C200.256 103.512 201.018 105.289 202.541 106.812C204.064 108.336 205.842 109.098 207.873 109.098C209.523 109.098 211.199 108.26 212.9 106.584C214.627 104.883 215.49 103.182 215.49 101.48V82.4375ZM190.734 119V114.43C197.59 114.43 202.643 113.541 205.893 111.764C202.312 111.104 199.329 109.707 196.942 107.574C194.581 105.416 193.4 103.004 193.4 100.338V82.4375H188.221V79.3906H230.648V82.4375H222.346V114.43C222.346 115.268 222.879 115.991 223.945 116.601C225.037 117.185 226.281 117.477 227.678 117.477V119H210.158V117.477C211.58 117.477 212.824 117.185 213.891 116.601C214.957 116.017 215.49 115.293 215.49 114.43V107.193C212.367 110.926 208.622 113.833 204.255 115.915C199.913 117.972 195.406 119 190.734 119ZM268.963 82.4375H259.594V91.1973H247.711C246.238 91.1973 245.058 91.4893 244.169 92.0732C243.28 92.6572 242.836 93.3809 242.836 94.2441C242.836 95.2598 243.471 96.2754 244.74 97.291C246.162 97.0371 247.559 96.9102 248.93 96.9102C253.627 96.9102 257.334 97.8115 260.051 99.6143C262.793 101.392 264.164 103.791 264.164 106.812C264.164 109.453 263.098 111.637 260.965 113.363C258.857 115.09 256.369 115.953 253.5 115.953C250.783 115.953 248.498 115.191 246.645 113.668V111.764C247.686 112.525 249.082 112.906 250.834 112.906C252.586 112.906 254.097 112.31 255.366 111.116C256.661 109.897 257.309 108.463 257.309 106.812C257.309 104.705 256.42 102.915 254.643 101.442C252.891 99.9443 250.732 99.1953 248.168 99.1953C245.121 99.1953 242.455 100.059 240.17 101.785C237.885 103.486 236.742 105.67 236.742 108.336C236.742 111.459 238.228 114.15 241.198 116.41C244.194 118.645 247.787 119.762 251.977 119.762C257.537 119.762 261.6 118.746 264.164 116.715L261.879 122.047H251.596C244.359 122.047 238.926 120.968 235.295 118.81C231.689 116.651 229.887 113.414 229.887 109.098C229.887 106.812 230.763 104.73 232.515 102.852C234.267 100.947 236.564 99.6016 239.408 98.8145C236.869 97.5449 235.6 95.8945 235.6 93.8633C235.6 92.3906 236.374 91.1338 237.923 90.0928C239.472 89.0518 241.363 88.5312 243.598 88.5312H252.738V82.4375H227.754V79.3906H268.963V82.4375ZM301.564 82.4375H283.512C286.939 83.0469 289.758 84.5322 291.967 86.8936C294.201 89.2295 295.318 91.9336 295.318 95.0059C295.318 98.459 293.63 101.417 290.253 103.88C286.876 106.343 282.852 107.574 278.18 107.574C280.186 109.961 282.191 111.827 284.197 113.173C286.229 114.519 288.031 115.191 289.605 115.191C290.697 115.191 291.789 114.823 292.881 114.087C293.998 113.351 294.938 112.322 295.699 111.002L297.223 112.145C296.461 114.252 295.09 115.928 293.109 117.172C291.129 118.391 288.945 119 286.559 119C284.705 119 282.813 118.594 280.884 117.781C278.979 116.969 277.316 115.852 275.895 114.43C273.457 111.992 271.477 110.139 269.953 108.869C268.43 107.6 267.363 106.914 266.754 106.812V105.289C267.363 105.314 268.62 105.454 270.524 105.708C272.149 105.937 273.432 106.051 274.371 106.051C277.748 106.051 280.617 104.87 282.979 102.509C285.365 100.122 286.559 97.2402 286.559 93.8633C286.559 91.0449 285.619 88.5693 283.74 86.4365C281.887 84.2783 279.525 82.9453 276.656 82.4375H266.068V79.3906H301.564V82.4375Z" fill="white"/>
<path d="M141.836 93.2539C135.621 88.1471 131.598 84.0521 129.768 80.9688C127.985 77.8372 127.094 74.6094 127.094 71.2852C127.094 66.1784 129.069 61.7702 133.02 58.0605C136.97 54.3509 142.221 52.4961 148.773 52.4961C155.133 52.4961 160.24 54.2305 164.094 57.6992C167.996 61.1198 169.947 65.0462 169.947 69.4785C169.947 72.4173 168.887 75.4284 166.768 78.5117C164.696 81.5469 160.36 85.1361 153.76 89.2793C160.553 94.5788 165.057 98.7461 167.273 101.781C170.212 105.732 171.682 109.899 171.682 114.283C171.682 119.824 169.562 124.569 165.322 128.52C161.131 132.422 155.59 134.373 148.701 134.373C141.234 134.373 135.404 132.036 131.213 127.363C127.889 123.605 126.227 119.486 126.227 115.006C126.227 111.537 127.383 108.092 129.695 104.672C132.056 101.203 136.103 97.3971 141.836 93.2539ZM151.014 87.0391C155.639 82.8477 158.577 79.5475 159.83 77.1387C161.083 74.6816 161.709 71.9355 161.709 68.9004C161.709 64.8053 160.553 61.6257 158.24 59.3613C155.976 57.0488 152.868 55.8926 148.918 55.8926C144.967 55.8926 141.74 57.0488 139.234 59.3613C136.777 61.6257 135.549 64.2754 135.549 67.3105C135.549 69.334 136.055 71.3574 137.066 73.3809C138.078 75.4043 139.548 77.3314 141.475 79.1621L151.014 87.0391ZM144.582 95.4941C141.354 98.1921 138.969 101.155 137.428 104.383C135.886 107.562 135.115 111.007 135.115 114.717C135.115 119.727 136.464 123.75 139.162 126.785C141.908 129.772 145.401 131.266 149.641 131.266C153.832 131.266 157.18 130.085 159.686 127.725C162.239 125.364 163.516 122.497 163.516 119.125C163.516 116.331 162.769 113.826 161.275 111.609C158.529 107.466 152.965 102.094 144.582 95.4941Z" fill="#F9D3A4"/>
<path d="M92.1367 27.125H74.6289C76.1641 27.6875 77.4238 28.4785 78.4082 29.498C79.4043 30.5059 79.9023 31.5898 79.9023 32.75C79.9023 34.4023 79.1816 35.8145 77.7402 36.9863C76.3105 38.1465 74.5703 38.7266 72.5195 38.7266C73.832 39.7812 74.9688 40.5723 75.9297 41.0996C76.9023 41.627 77.6992 41.8906 78.3203 41.8906C78.6953 41.8906 79.0645 41.8027 79.4277 41.627C79.8027 41.4395 80.1719 41.1641 80.5352 40.8008L81.3438 41.4336C80.7227 42.2891 79.9961 42.9336 79.1641 43.3672C78.3438 43.7891 77.418 44 76.3867 44C75.625 44 74.8457 43.7832 74.0488 43.3496C73.2637 42.9043 72.4609 42.2422 71.6406 41.3633C70.9609 40.6484 70.252 40.0449 69.5137 39.5527C68.7871 39.0488 68.0312 38.6562 67.2461 38.375L67.5977 37.3203L70.2344 38.0234C71.9336 38.0234 73.3809 37.4434 74.5762 36.2832C75.7832 35.1113 76.3867 33.6992 76.3867 32.0469C76.3867 30.8164 75.9883 29.7441 75.1914 28.8301C74.4062 27.9043 73.3984 27.3359 72.168 27.125H66.8945V25.7188H92.1367V27.125ZM87.6367 42.7695L86.7578 42.2422C87.6953 40.9297 88.1641 39.2891 88.1641 37.3203C88.1641 36.3594 87.8828 35.5039 87.3203 34.7539C86.7578 34.0039 86.043 33.6289 85.1758 33.6289C84.5781 33.6289 84.0742 33.8398 83.6641 34.2617C83.2656 34.6719 83.0664 35.1641 83.0664 35.7383C83.0664 36.1719 83.2012 36.5469 83.4707 36.8633C83.752 37.168 84.0859 37.3203 84.4727 37.3203C84.7891 37.3203 85.0703 37.1914 85.3164 36.9336C85.5742 36.6641 85.7031 36.3242 85.7031 35.9141L86.9336 36.0898C86.9336 36.9453 86.5996 37.6895 85.9316 38.3223C85.2754 38.9434 84.4961 39.2539 83.5938 39.2539C82.5977 39.2539 81.7305 38.9082 80.9922 38.2168C80.2656 37.5137 79.9023 36.6875 79.9023 35.7383C79.9023 34.6016 80.3066 33.6465 81.1152 32.873C81.9355 32.0879 82.9375 31.6953 84.1211 31.6953C85.6797 31.6953 87.0039 32.2461 88.0938 33.3477C89.1953 34.4375 89.7461 35.7617 89.7461 37.3203C89.7461 39.2539 89.043 41.0703 87.6367 42.7695ZM109.82 27.125H105.496V31.168H100.012C99.332 31.168 98.7871 31.3027 98.377 31.5723C97.9668 31.8418 97.7617 32.1758 97.7617 32.5742C97.7617 33.043 98.0547 33.5117 98.6406 33.9805C99.2969 33.8633 99.9414 33.8047 100.574 33.8047C102.742 33.8047 104.453 34.2207 105.707 35.0527C106.973 35.873 107.605 36.9805 107.605 38.375C107.605 39.5938 107.113 40.6016 106.129 41.3984C105.156 42.1953 104.008 42.5938 102.684 42.5938C101.43 42.5938 100.375 42.2422 99.5195 41.5391V40.6602C100 41.0117 100.645 41.1875 101.453 41.1875C102.262 41.1875 102.959 40.9121 103.545 40.3613C104.143 39.7988 104.441 39.1367 104.441 38.375C104.441 37.4023 104.031 36.5762 103.211 35.8965C102.402 35.2051 101.406 34.8594 100.223 34.8594C98.8164 34.8594 97.5859 35.2578 96.5312 36.0547C95.4766 36.8398 94.9492 37.8477 94.9492 39.0781C94.9492 40.5195 95.6348 41.7617 97.0059 42.8047C98.3887 43.8359 100.047 44.3516 101.98 44.3516C104.547 44.3516 106.422 43.8828 107.605 42.9453L106.551 45.4062H101.805C98.4648 45.4062 95.957 44.9082 94.2812 43.9121C92.6172 42.916 91.7852 41.4219 91.7852 39.4297C91.7852 38.375 92.1895 37.4141 92.998 36.5469C93.8066 35.668 94.8672 35.0469 96.1797 34.6836C95.0078 34.0977 94.4219 33.3359 94.4219 32.3984C94.4219 31.7188 94.7793 31.1387 95.4941 30.6582C96.209 30.1777 97.082 29.9375 98.1133 29.9375H102.332V27.125H90.8008V25.7188H109.82V27.125ZM118.188 27.125H114.355V41.8906C114.355 42.2773 114.602 42.6113 115.094 42.8926C115.598 43.1621 116.172 43.2969 116.816 43.2969V44H108.73V43.2969C109.387 43.2969 109.961 43.1621 110.453 42.8926C110.945 42.623 111.191 42.2891 111.191 41.8906V27.125H108.484V25.7188H118.188V27.125ZM115.164 25.3672H111.648C110.98 25.3672 110.395 25.1445 109.891 24.6992L104.266 19.6719C103.961 19.4023 103.662 19.2266 103.369 19.1445C103.064 19.0508 102.66 19.0039 102.156 19.0039H101.453V17.9844H105.32C106.223 17.9844 107.043 18.3242 107.781 19.0039L113.055 23.8555C113.535 24.3008 114.121 24.5234 114.812 24.5234H115.164V25.3672ZM114.109 21.2188C113.688 21.2188 113.324 21.0664 113.02 20.7617C112.715 20.457 112.562 20.0938 112.562 19.6719C112.562 19.25 112.715 18.8867 113.02 18.582C113.324 18.2773 113.688 18.125 114.109 18.125C114.531 18.125 114.895 18.2773 115.199 18.582C115.504 18.8867 115.656 19.25 115.656 19.6719C115.656 20.0938 115.504 20.457 115.199 20.7617C114.895 21.0664 114.531 21.2188 114.109 21.2188ZM136.469 38.7266V31.8711C135.496 30.6992 134.207 30.1133 132.602 30.1133C131.371 30.1133 130.357 30.6113 129.561 31.6074C128.775 32.5918 128.383 33.793 128.383 35.2109C128.383 36.5938 128.787 37.7891 129.596 38.7969C130.404 39.8047 131.406 40.3086 132.602 40.3086C133.926 40.3086 135.215 39.7812 136.469 38.7266ZM139.633 31.6953V41.8906C139.633 42.2773 139.879 42.6113 140.371 42.8926C140.875 43.1621 141.449 43.2969 142.094 43.2969V44H134.008V43.2969C134.664 43.2969 135.238 43.1621 135.73 42.8926C136.223 42.623 136.469 42.2891 136.469 41.8906V39.957C135.215 41.0117 133.691 41.5391 131.898 41.5391C130.07 41.5391 128.5 40.918 127.188 39.6758C125.875 38.4336 125.219 36.9453 125.219 35.2109C125.219 33.4648 125.863 31.9766 127.152 30.7461C128.453 29.5039 130.035 28.8828 131.898 28.8828C133.516 28.8828 135.039 29.4688 136.469 30.6406V27.125H124.094V25.7188H153.133V27.125H139.633V30.2891C140.781 29.3516 142.305 28.8828 144.203 28.8828C146.078 28.8828 147.66 29.4922 148.949 30.7109C150.238 31.9297 150.883 33.4297 150.883 35.2109C150.883 36.9805 150.227 38.4805 148.914 39.7109C147.613 40.9297 146.043 41.5391 144.203 41.5391C142.809 41.5391 141.52 41.0703 140.336 40.1328L140.688 39.2539C141.496 39.957 142.434 40.3086 143.5 40.3086C144.66 40.3086 145.65 39.8105 146.471 38.8145C147.303 37.8066 147.719 36.6055 147.719 35.2109C147.719 33.793 147.309 32.5918 146.488 31.6074C145.68 30.6113 144.684 30.1133 143.5 30.1133C141.824 30.1133 140.535 30.6406 139.633 31.6953ZM161.5 27.125H157.668V41.8906C157.668 42.2773 157.914 42.6113 158.406 42.8926C158.91 43.1621 159.484 43.2969 160.129 43.2969V44H152.043V43.2969C152.699 43.2969 153.273 43.1621 153.766 42.8926C154.258 42.623 154.504 42.2891 154.504 41.8906V27.125H151.797V25.7188H161.5V27.125ZM157.668 25.3672H154.504C154.504 23.6445 153.584 22.1504 151.744 20.8848C149.904 19.6074 147.625 18.9688 144.906 18.9688C142.984 18.9688 141.408 19.3555 140.178 20.1289C138.947 20.8906 138.332 21.8516 138.332 23.0117C138.332 23.8203 138.801 24.6055 139.738 25.3672H136.574C135.637 24.6055 135.168 23.8203 135.168 23.0117C135.168 21.5234 136.088 20.3105 137.928 19.373C139.768 18.4238 141.953 17.9492 144.484 17.9492C148.117 17.9492 151.223 18.6934 153.801 20.1816C156.379 21.6582 157.668 23.3867 157.668 25.3672ZM183.789 27.125H175.457C177.039 27.4062 178.34 28.0918 179.359 29.1816C180.391 30.2598 180.906 31.5078 180.906 32.9258C180.906 34.5195 180.127 35.8848 178.568 37.0215C177.01 38.1582 175.152 38.7266 172.996 38.7266C173.922 39.8281 174.848 40.6895 175.773 41.3105C176.711 41.9316 177.543 42.2422 178.27 42.2422C178.773 42.2422 179.277 42.0723 179.781 41.7324C180.297 41.3926 180.73 40.918 181.082 40.3086L181.785 40.8359C181.434 41.8086 180.801 42.582 179.887 43.1562C178.973 43.7188 177.965 44 176.863 44C176.008 44 175.135 43.8125 174.244 43.4375C173.365 43.0625 172.598 42.5469 171.941 41.8906C170.816 40.7656 169.902 39.9102 169.199 39.3242C168.496 38.7383 168.004 38.4219 167.723 38.375V37.6719C168.004 37.6836 168.584 37.748 169.463 37.8652C170.213 37.9707 170.805 38.0234 171.238 38.0234C172.797 38.0234 174.121 37.4785 175.211 36.3887C176.312 35.2871 176.863 33.957 176.863 32.3984C176.863 31.0977 176.43 29.9551 175.562 28.9707C174.707 27.9746 173.617 27.3594 172.293 27.125H167.406V25.7188H183.789V27.125ZM201.473 27.125H197.148V31.168H191.664C190.984 31.168 190.439 31.3027 190.029 31.5723C189.619 31.8418 189.414 32.1758 189.414 32.5742C189.414 33.043 189.707 33.5117 190.293 33.9805C190.949 33.8633 191.594 33.8047 192.227 33.8047C194.395 33.8047 196.105 34.2207 197.359 35.0527C198.625 35.873 199.258 36.9805 199.258 38.375C199.258 39.5938 198.766 40.6016 197.781 41.3984C196.809 42.1953 195.66 42.5938 194.336 42.5938C193.082 42.5938 192.027 42.2422 191.172 41.5391V40.6602C191.652 41.0117 192.297 41.1875 193.105 41.1875C193.914 41.1875 194.611 40.9121 195.197 40.3613C195.795 39.7988 196.094 39.1367 196.094 38.375C196.094 37.4023 195.684 36.5762 194.863 35.8965C194.055 35.2051 193.059 34.8594 191.875 34.8594C190.469 34.8594 189.238 35.2578 188.184 36.0547C187.129 36.8398 186.602 37.8477 186.602 39.0781C186.602 40.5195 187.287 41.7617 188.658 42.8047C190.041 43.8359 191.699 44.3516 193.633 44.3516C196.199 44.3516 198.074 43.8828 199.258 42.9453L198.203 45.4062H193.457C190.117 45.4062 187.609 44.9082 185.934 43.9121C184.27 42.916 183.438 41.4219 183.438 39.4297C183.438 38.375 183.842 37.4141 184.65 36.5469C185.459 35.668 186.52 35.0469 187.832 34.6836C186.66 34.0977 186.074 33.3359 186.074 32.3984C186.074 31.7188 186.432 31.1387 187.146 30.6582C187.861 30.1777 188.734 29.9375 189.766 29.9375H193.984V27.125H182.453V25.7188H201.473V27.125ZM207.871 41.5391C208.832 41.5391 209.658 41.0645 210.35 40.1152C211.041 39.166 211.387 38 211.387 36.6172C211.387 35.2344 211.041 34.0684 210.35 33.1191C209.67 32.1699 208.844 31.6953 207.871 31.6953C206.91 31.6953 206.084 32.1816 205.393 33.1543C204.701 34.127 204.355 35.2812 204.355 36.6172C204.355 37.9648 204.701 39.125 205.393 40.0977C206.096 41.0586 206.922 41.5391 207.871 41.5391ZM217.012 34.5078C216.309 33.9336 215.518 33.459 214.639 33.084C213.76 32.6973 212.793 32.4102 211.738 32.2227C212.629 32.6328 213.32 33.2305 213.812 34.0156C214.305 34.8008 214.551 35.668 214.551 36.6172C214.551 38.2695 213.9 39.6816 212.6 40.8535C211.311 42.0137 209.734 42.5938 207.871 42.5938C206.031 42.5938 204.455 42.0078 203.143 40.8359C201.842 39.6523 201.191 38.2461 201.191 36.6172C201.191 34.9883 201.842 33.5879 203.143 32.416C204.455 31.2324 206.031 30.6406 207.871 30.6406C209.957 30.6406 211.762 30.8457 213.285 31.2559C214.809 31.666 216.051 32.2812 217.012 33.1016V27.125H200.137V25.7188H224.008V27.125H220.176V41.8906C220.176 42.2773 220.422 42.6113 220.914 42.8926C221.418 43.1621 221.992 43.2969 222.637 43.2969V44H214.551V43.2969C215.207 43.2969 215.781 43.1621 216.273 42.8926C216.766 42.623 217.012 42.2891 217.012 41.8906V34.5078ZM232.375 27.125H228.543V41.8906C228.543 42.2773 228.789 42.6113 229.281 42.8926C229.785 43.1621 230.359 43.2969 231.004 43.2969V44H222.918V43.2969C223.574 43.2969 224.148 43.1621 224.641 42.8926C225.133 42.623 225.379 42.2891 225.379 41.8906V27.125H222.672V25.7188H232.375V27.125ZM228.543 25.3672H225.379V24.3477C225.379 22.8477 225.033 21.5762 224.342 20.5332C223.662 19.4902 222.836 18.9688 221.863 18.9688C221.078 18.9688 220.416 19.2734 219.877 19.8828C219.326 20.4805 219.051 21.1836 219.051 21.9922C219.051 23.1289 219.52 24.2539 220.457 25.3672H217.293C216.883 25.0391 216.549 24.582 216.291 23.9961C216.021 23.3984 215.887 22.7891 215.887 22.168C215.887 20.9844 216.391 19.9883 217.398 19.1797C218.406 18.3594 219.66 17.9492 221.16 17.9492C223.223 17.9492 224.969 18.5703 226.398 19.8125C227.828 21.043 228.543 22.5547 228.543 24.3477V25.3672Z" fill="white"/>
</svg>
