<svg width="304" height="152" viewBox="0 0 304 152" fill="none" xmlns="http://www.w3.org/2000/svg">
<path d="M1.44727 102.242H3.73242C3.73242 105.771 4.81152 108.818 6.96973 111.383C9.15332 113.922 11.7559 115.191 14.7773 115.191C16.9609 115.191 18.8398 114.442 20.4141 112.944C21.9883 111.446 22.7754 109.605 22.7754 107.422C22.7754 105.213 21.9883 103.359 20.4141 101.861C18.8652 100.338 16.9863 99.5762 14.7773 99.5762H12.1113V97.291H14.7773C16.7578 97.291 18.459 96.6182 19.8809 95.2725C21.3027 93.9268 22.0137 92.2637 22.0137 90.2832C22.0137 88.2773 21.3027 86.6016 19.8809 85.2559C18.4844 83.8848 16.7832 83.1992 14.7773 83.1992C13.0508 83.1992 11.4893 83.7324 10.0928 84.7988C8.72168 85.8398 7.74414 87.2109 7.16016 88.9121L5.25586 87.7695C6.06836 85.5098 7.51562 83.6816 9.59766 82.2852C11.6797 80.8633 14.041 80.1523 16.6816 80.1523C20.0332 80.1523 22.9023 81.1172 25.2891 83.0469C27.6758 84.9766 28.8691 87.3125 28.8691 90.0547C28.8691 92.0605 28.209 93.8125 26.8887 95.3105C25.5938 96.7832 23.9688 97.6973 22.0137 98.0527V98.4336C24.4766 98.8398 26.4824 99.9443 28.0312 101.747C29.6055 103.524 30.3926 105.594 30.3926 107.955C30.3926 111.027 28.9707 113.643 26.127 115.801C23.2832 117.934 19.8809 119 15.9199 119C11.959 119 8.55664 117.35 5.71289 114.049C2.86914 110.748 1.44727 106.812 1.44727 102.242ZM41.8184 82.4375V113.668C41.8184 114.709 42.3516 115.61 43.418 116.372C44.4844 117.108 45.7285 117.477 47.1504 117.477V119H29.6309V117.477C31.0527 117.477 32.2969 117.108 33.3633 116.372C34.4297 115.636 34.9629 114.734 34.9629 113.668V99.5762H30.3926V96.9102H34.9629V82.4375H30.3926V79.3906H50.1973V82.4375H41.8184ZM58.1953 86.2461V102.242C58.1953 104.756 58.9951 106.914 60.5947 108.717C62.1943 110.494 64.1875 111.383 66.5742 111.383C67.9707 111.383 69.2402 111.065 70.3828 110.431C71.5508 109.771 72.3125 108.945 72.668 107.955L58.1953 86.2461ZM97.8047 82.4375H58.957L75.1816 105.975C75.0293 104.908 74.9531 104.172 74.9531 103.766C74.9531 99.7539 76.8701 96.3389 80.7041 93.5205C84.5381 90.7021 89.2227 89.293 94.7578 89.293H97.8047V82.4375ZM112.658 82.4375H104.66V93.1016C101.918 92.0859 99.125 91.5781 96.2812 91.5781C92.2949 91.5781 88.8926 92.7715 86.0742 95.1582C83.2812 97.5195 81.8848 100.49 81.8848 104.07C81.8848 107.422 83.2305 110.177 85.9219 112.335C88.6133 114.493 92.0664 115.572 96.2812 115.572C100.801 115.572 104.736 113.922 108.088 110.621L109.23 112.145C107.402 114.328 105.143 116.017 102.451 117.21C99.7598 118.403 96.9414 119 93.9961 119C90.1113 119 86.5312 118.111 83.2559 116.334C79.9805 114.557 77.6445 112.221 76.248 109.326C74.8516 110.951 73.1504 112.208 71.1445 113.097C69.1641 113.985 67.1328 114.43 65.0508 114.43C61.2676 114.43 58.0303 113.236 55.3389 110.85C52.6729 108.438 51.3398 105.568 51.3398 102.242V82.4375H47.3027V79.3906H112.658V82.4375ZM215.49 82.4375H200.256V101.48C200.256 103.512 201.018 105.289 202.541 106.812C204.064 108.336 205.842 109.098 207.873 109.098C209.523 109.098 211.199 108.26 212.9 106.584C214.627 104.883 215.49 103.182 215.49 101.48V82.4375ZM190.734 119V114.43C197.59 114.43 202.643 113.541 205.893 111.764C202.312 111.104 199.329 109.707 196.942 107.574C194.581 105.416 193.4 103.004 193.4 100.338V82.4375H188.221V79.3906H230.648V82.4375H222.346V114.43C222.346 115.268 222.879 115.991 223.945 116.601C225.037 117.185 226.281 117.477 227.678 117.477V119H210.158V117.477C211.58 117.477 212.824 117.185 213.891 116.601C214.957 116.017 215.49 115.293 215.49 114.43V107.193C212.367 110.926 208.622 113.833 204.255 115.915C199.913 117.972 195.406 119 190.734 119ZM268.963 82.4375H259.594V91.1973H247.711C246.238 91.1973 245.058 91.4893 244.169 92.0732C243.28 92.6572 242.836 93.3809 242.836 94.2441C242.836 95.2598 243.471 96.2754 244.74 97.291C246.162 97.0371 247.559 96.9102 248.93 96.9102C253.627 96.9102 257.334 97.8115 260.051 99.6143C262.793 101.392 264.164 103.791 264.164 106.812C264.164 109.453 263.098 111.637 260.965 113.363C258.857 115.09 256.369 115.953 253.5 115.953C250.783 115.953 248.498 115.191 246.645 113.668V111.764C247.686 112.525 249.082 112.906 250.834 112.906C252.586 112.906 254.097 112.31 255.366 111.116C256.661 109.897 257.309 108.463 257.309 106.812C257.309 104.705 256.42 102.915 254.643 101.442C252.891 99.9443 250.732 99.1953 248.168 99.1953C245.121 99.1953 242.455 100.059 240.17 101.785C237.885 103.486 236.742 105.67 236.742 108.336C236.742 111.459 238.228 114.15 241.198 116.41C244.194 118.645 247.787 119.762 251.977 119.762C257.537 119.762 261.6 118.746 264.164 116.715L261.879 122.047H251.596C244.359 122.047 238.926 120.968 235.295 118.81C231.689 116.651 229.887 113.414 229.887 109.098C229.887 106.812 230.763 104.73 232.515 102.852C234.267 100.947 236.564 99.6016 239.408 98.8145C236.869 97.5449 235.6 95.8945 235.6 93.8633C235.6 92.3906 236.374 91.1338 237.923 90.0928C239.472 89.0518 241.363 88.5312 243.598 88.5312H252.738V82.4375H227.754V79.3906H268.963V82.4375ZM301.564 82.4375H283.512C286.939 83.0469 289.758 84.5322 291.967 86.8936C294.201 89.2295 295.318 91.9336 295.318 95.0059C295.318 98.459 293.63 101.417 290.253 103.88C286.876 106.343 282.852 107.574 278.18 107.574C280.186 109.961 282.191 111.827 284.197 113.173C286.229 114.519 288.031 115.191 289.605 115.191C290.697 115.191 291.789 114.823 292.881 114.087C293.998 113.351 294.938 112.322 295.699 111.002L297.223 112.145C296.461 114.252 295.09 115.928 293.109 117.172C291.129 118.391 288.945 119 286.559 119C284.705 119 282.813 118.594 280.884 117.781C278.979 116.969 277.316 115.852 275.895 114.43C273.457 111.992 271.477 110.139 269.953 108.869C268.43 107.6 267.363 106.914 266.754 106.812V105.289C267.363 105.314 268.62 105.454 270.524 105.708C272.149 105.937 273.432 106.051 274.371 106.051C277.748 106.051 280.617 104.87 282.979 102.509C285.365 100.122 286.559 97.2402 286.559 93.8633C286.559 91.0449 285.619 88.5693 283.74 86.4365C281.887 84.2783 279.525 82.9453 276.656 82.4375H266.068V79.3906H301.564V82.4375Z" fill="white"/>
<path d="M141.836 93.2539C135.621 88.1471 131.598 84.0521 129.768 80.9688C127.985 77.8372 127.094 74.6094 127.094 71.2852C127.094 66.1784 129.069 61.7702 133.02 58.0605C136.97 54.3509 142.221 52.4961 148.773 52.4961C155.133 52.4961 160.24 54.2305 164.094 57.6992C167.996 61.1198 169.947 65.0462 169.947 69.4785C169.947 72.4173 168.887 75.4284 166.768 78.5117C164.696 81.5469 160.36 85.1361 153.76 89.2793C160.553 94.5788 165.057 98.7461 167.273 101.781C170.212 105.732 171.682 109.899 171.682 114.283C171.682 119.824 169.562 124.569 165.322 128.52C161.131 132.422 155.59 134.373 148.701 134.373C141.234 134.373 135.404 132.036 131.213 127.363C127.889 123.605 126.227 119.486 126.227 115.006C126.227 111.537 127.383 108.092 129.695 104.672C132.056 101.203 136.103 97.3971 141.836 93.2539ZM151.014 87.0391C155.639 82.8477 158.577 79.5475 159.83 77.1387C161.083 74.6816 161.709 71.9355 161.709 68.9004C161.709 64.8053 160.553 61.6257 158.24 59.3613C155.976 57.0488 152.868 55.8926 148.918 55.8926C144.967 55.8926 141.74 57.0488 139.234 59.3613C136.777 61.6257 135.549 64.2754 135.549 67.3105C135.549 69.334 136.055 71.3574 137.066 73.3809C138.078 75.4043 139.548 77.3314 141.475 79.1621L151.014 87.0391ZM144.582 95.4941C141.354 98.1921 138.969 101.155 137.428 104.383C135.886 107.562 135.115 111.007 135.115 114.717C135.115 119.727 136.464 123.75 139.162 126.785C141.908 129.772 145.401 131.266 149.641 131.266C153.832 131.266 157.18 130.085 159.686 127.725C162.239 125.364 163.516 122.497 163.516 119.125C163.516 116.331 162.769 113.826 161.275 111.609C158.529 107.466 152.965 102.094 144.582 95.4941Z" fill="#F9D3A4"/>
<path d="M113.271 65.2188C113.061 65.2165 92.1825 64.8623 76.0388 55.637C62.3952 47.8423 52.2913 46.8222 45.9974 52.6056C45.2584 53.4098 44.666 54.3373 44.2471 55.346C42.6952 55.2175 41.1403 55.1281 39.5838 55.0781C17.8534 53.1921 6.20969 59.616 4.26619 61.8355C1.98459 64.4437 4.13509 65.7466 6.67774 64.4437C9.22154 63.1396 12.4806 59.8138 24.0853 57.3367C30.4712 55.9739 38.2326 55.9739 43.9262 56.2488C43.6164 57.3093 43.5726 58.4298 43.7986 59.5113C43.8101 59.5562 44.7427 63.4443 48.3997 63.5087C48.4768 63.511 50.2696 63.5271 50.9999 62.4047C51.1781 62.1299 51.2598 61.8136 51.2782 61.4686C51.3437 61.1374 51.3598 60.7223 51.2552 60.1806C50.9562 58.6396 49.4773 58.8363 49.1185 59.6125C48.7608 60.3899 49.4773 61.1213 50.165 60.912C50.165 60.912 50.2524 60.8856 50.3628 60.8959C50.4663 61.3214 50.4433 61.6722 50.2765 61.9321C49.8878 62.5301 48.7999 62.6485 48.4135 62.6428C45.4396 62.591 44.6726 59.4573 44.6415 59.3227C44.4092 58.2245 44.5461 57.1906 44.829 56.2948C45.0877 56.3086 45.3419 56.3247 45.5926 56.3408C48.2111 56.6041 50.7446 56.9813 53.094 57.4839C65.6348 60.168 84.1187 63.5271 84.305 63.5605C98.3948 65.8996 110.982 65.9985 111.107 65.9996C111.123 65.9996 111.137 65.9927 111.153 65.9916C112.463 66.0721 113.223 66.0836 113.262 66.0836C113.371 66.0772 113.474 66.0296 113.55 65.9504C113.626 65.8711 113.669 65.7661 113.67 65.6565C113.672 65.5469 113.632 65.4409 113.558 65.3596C113.484 65.2784 113.383 65.2281 113.274 65.2188H113.271ZM84.4522 62.7083C84.274 62.675 65.8027 59.3193 53.2757 56.6386C50.7411 56.097 48.0007 55.6968 45.159 55.4311C45.5246 54.6275 46.0109 53.8844 46.6011 53.2277C52.5673 47.7457 62.3331 48.8025 75.6099 56.3914C83.3321 60.8028 92.1135 63.2086 99.2539 64.5207C94.9425 64.1631 89.8089 63.6007 84.4534 62.7118V62.7083H84.4522Z" fill="#FFC73E"/>
<path d="M191.3 65.6569C191.301 65.7714 191.348 65.8806 191.43 65.9606C191.512 66.0406 191.622 66.0848 191.737 66.0836C191.776 66.0836 192.536 66.0698 193.847 65.9916C193.862 65.9927 193.876 66.0008 193.891 66.0008C194.016 66.0008 206.603 65.8996 220.693 63.5605C220.879 63.5271 239.363 60.168 251.904 57.4839C254.253 56.9813 256.787 56.6041 259.405 56.3396L260.17 56.2948C260.453 57.1918 260.591 58.2245 260.355 59.3227C260.324 59.4561 259.558 62.5933 256.583 62.6428C256.197 62.6485 255.109 62.5301 254.72 61.9321C254.552 61.6722 254.53 61.3203 254.635 60.8959C254.701 60.8891 254.768 60.8946 254.833 60.912C255.52 61.1225 256.237 60.3899 255.879 59.6125C255.52 58.8363 254.042 58.6419 253.744 60.1806C253.639 60.7211 253.655 61.1374 253.721 61.4686C253.737 61.8136 253.817 62.1322 253.997 62.4059C254.728 63.5271 256.521 63.5099 256.598 63.5099C260.254 63.4455 261.19 59.5573 261.199 59.5113C261.423 58.4296 261.379 57.3095 261.07 56.2488C266.765 55.9728 274.529 55.9728 280.914 57.3378C292.519 59.8138 295.78 63.1396 298.322 64.4448C300.864 65.7478 303.017 64.4448 300.734 61.8355C298.79 59.6148 287.148 53.1921 265.415 55.0781C263.859 55.1282 262.304 55.2176 260.753 55.346C260.086 53.7383 259.082 52.6861 259 52.6056C252.709 46.8211 242.601 47.8423 228.959 55.637C212.815 64.8634 191.936 65.2165 191.728 65.2188C191.671 65.2194 191.615 65.2312 191.563 65.2535C191.51 65.2757 191.463 65.3081 191.423 65.3487C191.383 65.3893 191.352 65.4373 191.331 65.49C191.31 65.5427 191.299 65.599 191.3 65.6558V65.6569ZM205.745 64.5184C212.885 63.2063 221.667 60.8016 229.389 56.3879C242.666 48.8014 252.432 47.7422 258.399 53.2254C258.414 53.2392 259.234 54.0994 259.839 55.4277C257 55.6945 254.257 56.0947 251.723 56.6352C239.195 59.317 220.725 62.6738 220.547 62.706C215.19 63.595 210.056 64.1573 205.745 64.515V64.5184Z" fill="#FFC73E"/>
<path d="M41.166 32.2656H42.2207C42.2207 33.8945 42.7188 35.3008 43.7148 36.4844C44.7227 37.6562 45.9238 38.2422 47.3184 38.2422C48.3262 38.2422 49.1934 37.8965 49.9199 37.2051C50.6465 36.5137 51.0098 35.6641 51.0098 34.6562C51.0098 33.6367 50.6465 32.7812 49.9199 32.0898C49.2051 31.3867 48.3379 31.0352 47.3184 31.0352H46.0879V29.9805H47.3184C48.2324 29.9805 49.0176 29.6699 49.6738 29.0488C50.3301 28.4277 50.6582 27.6602 50.6582 26.7461C50.6582 25.8203 50.3301 25.0469 49.6738 24.4258C49.0293 23.793 48.2441 23.4766 47.3184 23.4766C46.5215 23.4766 45.8008 23.7227 45.1562 24.2148C44.5234 24.6953 44.0723 25.3281 43.8027 26.1133L42.9238 25.5859C43.2988 24.543 43.9668 23.6992 44.9277 23.0547C45.8887 22.3984 46.9785 22.0703 48.1973 22.0703C49.7441 22.0703 51.0684 22.5156 52.1699 23.4062C53.2715 24.2969 53.8223 25.375 53.8223 26.6406C53.8223 27.5664 53.5176 28.375 52.9082 29.0664C52.3105 29.7461 51.5605 30.168 50.6582 30.332V30.5078C51.7949 30.6953 52.7207 31.2051 53.4355 32.0371C54.1621 32.8574 54.5254 33.8125 54.5254 34.9023C54.5254 36.3203 53.8691 37.5273 52.5566 38.5234C51.2441 39.5078 49.6738 40 47.8457 40C46.0176 40 44.4473 39.2383 43.1348 37.7148C41.8223 36.1914 41.166 34.375 41.166 32.2656ZM59.7988 23.125V37.5391C59.7988 38.0195 60.0449 38.4355 60.5371 38.7871C61.0293 39.127 61.6035 39.2969 62.2598 39.2969V40H54.1738V39.2969C54.8301 39.2969 55.4043 39.127 55.8965 38.7871C56.3887 38.4473 56.6348 38.0312 56.6348 37.5391V31.0352H54.5254V29.8047H56.6348V23.125H54.5254V21.7188H72.2441V23.125H68.4121V37.8906C68.4121 38.2773 68.6582 38.6113 69.1504 38.8926C69.6543 39.1621 70.2285 39.2969 70.873 39.2969V40H62.7871V39.2969C63.4434 39.2969 64.0176 39.1621 64.5098 38.8926C65.002 38.623 65.248 38.2891 65.248 37.8906V23.125H59.7988ZM85.3398 28.4512C84.1328 27.3613 82.5508 26.8164 80.5938 26.8164C78.9766 26.8164 77.6875 27.3438 76.7266 28.3984C75.7773 29.4531 75.3027 30.8594 75.3027 32.6172C75.3027 33.4375 75.5312 34.2637 75.9883 35.0957C76.457 35.916 77.1602 36.7363 78.0977 37.5566L75.6543 40C74.5645 39.0742 73.7031 37.9844 73.0703 36.7305C72.4375 35.4766 72.1211 34.2285 72.1211 32.9863C72.1211 30.9941 72.9297 29.2656 74.5469 27.8008C76.1758 26.3359 78.1914 25.6035 80.5938 25.6035C82.5859 25.6035 84.168 26.0371 85.3398 26.9043V28.4512ZM86.0254 23.1074H70.9082V21.7188H86.0254V23.1074ZM106.662 23.125H102.83V37.8906C102.83 38.2773 103.076 38.6113 103.568 38.8926C104.072 39.1621 104.646 39.2969 105.291 39.2969V40H97.2051V39.2969C97.8613 39.2969 98.4355 39.1621 98.9277 38.8926C99.4199 38.623 99.666 38.2891 99.666 37.8906V31.0352H95.0957V33.6719C95.0957 34.9961 94.6035 36.1797 93.6191 37.2227C92.6348 38.2539 91.4863 38.7695 90.1738 38.7695C88.873 38.7695 87.7832 38.3418 86.9043 37.4863C86.0371 36.6191 85.6035 35.5469 85.6035 34.2695C85.6035 32.8984 86.084 31.8145 87.0449 31.0176C88.0059 30.209 89.2832 29.8047 90.877 29.8047H91.9316V23.125H84.6895V21.7188H106.662V23.125ZM99.666 29.8047V23.125H95.0957V29.8047H99.666ZM91.9316 35.0781V31H90.7012C90.1152 31 89.6465 31.334 89.2949 32.002C88.9434 32.6699 88.7676 33.4961 88.7676 34.4805C88.7676 36.6367 89.2363 37.7148 90.1738 37.7148C90.6777 37.7148 91.0938 37.4512 91.4219 36.9238C91.7617 36.3965 91.9316 35.7812 91.9316 35.0781ZM115.029 23.125H111.197V37.8906C111.197 38.2773 111.443 38.6113 111.936 38.8926C112.439 39.1621 113.014 39.2969 113.658 39.2969V40H105.572V39.2969C106.229 39.2969 106.803 39.1621 107.295 38.8926C107.787 38.623 108.033 38.2891 108.033 37.8906V23.125H105.326V21.7188H115.029V23.125ZM114.467 32.2656H115.521C115.521 33.8945 116.02 35.3008 117.016 36.4844C118.023 37.6562 119.225 38.2422 120.619 38.2422C121.627 38.2422 122.494 37.8965 123.221 37.2051C123.947 36.5137 124.311 35.6641 124.311 34.6562C124.311 33.6367 123.947 32.7812 123.221 32.0898C122.506 31.3867 121.639 31.0352 120.619 31.0352H119.389V29.9805H120.619C121.533 29.9805 122.318 29.6699 122.975 29.0488C123.631 28.4277 123.959 27.6602 123.959 26.7461C123.959 25.8203 123.631 25.0469 122.975 24.4258C122.33 23.793 121.545 23.4766 120.619 23.4766C119.822 23.4766 119.102 23.7227 118.457 24.2148C117.824 24.6953 117.373 25.3281 117.104 26.1133L116.225 25.5859C116.6 24.543 117.268 23.6992 118.229 23.0547C119.189 22.3984 120.279 22.0703 121.498 22.0703C123.045 22.0703 124.369 22.5156 125.471 23.4062C126.572 24.2969 127.123 25.375 127.123 26.6406C127.123 27.5664 126.818 28.375 126.209 29.0664C125.611 29.7461 124.861 30.168 123.959 30.332V30.5078C125.096 30.6953 126.021 31.2051 126.736 32.0371C127.463 32.8574 127.826 33.8125 127.826 34.9023C127.826 36.3203 127.17 37.5273 125.857 38.5234C124.545 39.5078 122.975 40 121.146 40C119.318 40 117.748 39.2383 116.436 37.7148C115.123 36.1914 114.467 34.375 114.467 32.2656ZM133.1 23.125V37.5391C133.1 38.0195 133.346 38.4355 133.838 38.7871C134.33 39.127 134.904 39.2969 135.561 39.2969V40H127.475V39.2969C128.131 39.2969 128.705 39.127 129.197 38.7871C129.689 38.4473 129.936 38.0312 129.936 37.5391V31.0352H127.826V29.8047H129.936V23.125H127.826V21.7188H145.545V23.125H141.713V37.8906C141.713 38.2773 141.959 38.6113 142.451 38.8926C142.955 39.1621 143.529 39.2969 144.174 39.2969V40H136.088V39.2969C136.744 39.2969 137.318 39.1621 137.811 38.8926C138.303 38.623 138.549 38.2891 138.549 37.8906V23.125H133.1ZM142.064 21.3672H138.549C137.881 21.3672 137.295 21.1445 136.791 20.6992L131.166 15.6719C130.861 15.4023 130.557 15.2266 130.252 15.1445C129.959 15.0508 129.561 15.0039 129.057 15.0039H128.354V13.9844H132.221C133.135 13.9844 133.955 14.3242 134.682 15.0039L139.955 19.8555C140.436 20.3008 141.021 20.5234 141.713 20.5234H142.064V21.3672ZM143.189 17.4648C142.768 17.4648 142.404 17.3125 142.1 17.0078C141.795 16.7031 141.643 16.3398 141.643 15.918C141.643 15.4961 141.795 15.1328 142.1 14.8281C142.404 14.5234 142.768 14.3711 143.189 14.3711C143.611 14.3711 143.975 14.5234 144.279 14.8281C144.584 15.1328 144.736 15.4961 144.736 15.918C144.736 16.3398 144.584 16.7031 144.279 17.0078C143.975 17.3125 143.611 17.4648 143.189 17.4648ZM163.826 34.7266V27.8711C162.854 26.6992 161.564 26.1133 159.959 26.1133C158.729 26.1133 157.715 26.6113 156.918 27.6074C156.133 28.5918 155.74 29.793 155.74 31.2109C155.74 32.5938 156.145 33.7891 156.953 34.7969C157.762 35.8047 158.764 36.3086 159.959 36.3086C161.283 36.3086 162.572 35.7812 163.826 34.7266ZM166.99 27.6953V37.8906C166.99 38.2773 167.236 38.6113 167.729 38.8926C168.232 39.1621 168.807 39.2969 169.451 39.2969V40H161.365V39.2969C162.021 39.2969 162.596 39.1621 163.088 38.8926C163.58 38.623 163.826 38.2891 163.826 37.8906V35.957C162.572 37.0117 161.049 37.5391 159.256 37.5391C157.428 37.5391 155.857 36.918 154.545 35.6758C153.232 34.4336 152.576 32.9453 152.576 31.2109C152.576 29.4648 153.221 27.9766 154.51 26.7461C155.811 25.5039 157.393 24.8828 159.256 24.8828C160.873 24.8828 162.396 25.4688 163.826 26.6406V23.125H151.451V21.7188H180.49V23.125H166.99V26.2891C168.139 25.3516 169.662 24.8828 171.561 24.8828C173.436 24.8828 175.018 25.4922 176.307 26.7109C177.596 27.9297 178.24 29.4297 178.24 31.2109C178.24 32.9805 177.584 34.4805 176.271 35.7109C174.971 36.9297 173.4 37.5391 171.561 37.5391C170.166 37.5391 168.877 37.0703 167.693 36.1328L168.045 35.2539C168.854 35.957 169.791 36.3086 170.857 36.3086C172.018 36.3086 173.008 35.8105 173.828 34.8145C174.66 33.8066 175.076 32.6055 175.076 31.2109C175.076 29.793 174.666 28.5918 173.846 27.6074C173.037 26.6113 172.041 26.1133 170.857 26.1133C169.182 26.1133 167.893 26.6406 166.99 27.6953ZM188.857 23.125H185.025V37.8906C185.025 38.2773 185.271 38.6113 185.764 38.8926C186.268 39.1621 186.842 39.2969 187.486 39.2969V40H179.4V39.2969C180.057 39.2969 180.631 39.1621 181.123 38.8926C181.615 38.623 181.861 38.2891 181.861 37.8906V23.125H179.154V21.7188H188.857V23.125ZM185.025 21.3672H181.861C181.861 19.6445 180.941 18.1504 179.102 16.8848C177.262 15.6074 174.982 14.9688 172.264 14.9688C170.342 14.9688 168.766 15.3555 167.535 16.1289C166.305 16.8906 165.689 17.8516 165.689 19.0117C165.689 19.8203 166.158 20.6055 167.096 21.3672H163.932C162.994 20.6055 162.525 19.8203 162.525 19.0117C162.525 17.5234 163.445 16.3105 165.285 15.373C167.125 14.4238 169.311 13.9492 171.842 13.9492C175.475 13.9492 178.58 14.6934 181.158 16.1816C183.736 17.6582 185.025 19.3867 185.025 21.3672ZM211.146 23.125H202.814C204.396 23.4062 205.697 24.0918 206.717 25.1816C207.748 26.2598 208.264 27.5078 208.264 28.9258C208.264 30.5195 207.484 31.8848 205.926 33.0215C204.367 34.1582 202.51 34.7266 200.354 34.7266C201.279 35.8281 202.205 36.6895 203.131 37.3105C204.068 37.9316 204.9 38.2422 205.627 38.2422C206.131 38.2422 206.635 38.0723 207.139 37.7324C207.654 37.3926 208.088 36.918 208.439 36.3086L209.143 36.8359C208.791 37.8086 208.158 38.582 207.244 39.1562C206.33 39.7188 205.322 40 204.221 40C203.365 40 202.492 39.8125 201.602 39.4375C200.723 39.0625 199.955 38.5469 199.299 37.8906C198.174 36.7656 197.26 35.9102 196.557 35.3242C195.854 34.7383 195.361 34.4219 195.08 34.375V33.6719C195.361 33.6836 195.941 33.748 196.82 33.8652C197.57 33.9707 198.162 34.0234 198.596 34.0234C200.154 34.0234 201.479 33.4785 202.568 32.3887C203.67 31.2871 204.221 29.957 204.221 28.3984C204.221 27.0977 203.787 25.9551 202.92 24.9707C202.064 23.9746 200.975 23.3594 199.65 23.125H194.764V21.7188H211.146V23.125ZM228.83 23.125H224.506V27.168H219.021C218.342 27.168 217.797 27.3027 217.387 27.5723C216.977 27.8418 216.771 28.1758 216.771 28.5742C216.771 29.043 217.064 29.5117 217.65 29.9805C218.307 29.8633 218.951 29.8047 219.584 29.8047C221.752 29.8047 223.463 30.2207 224.717 31.0527C225.982 31.873 226.615 32.9805 226.615 34.375C226.615 35.5938 226.123 36.6016 225.139 37.3984C224.166 38.1953 223.018 38.5938 221.693 38.5938C220.439 38.5938 219.385 38.2422 218.529 37.5391V36.6602C219.01 37.0117 219.654 37.1875 220.463 37.1875C221.271 37.1875 221.969 36.9121 222.555 36.3613C223.152 35.7988 223.451 35.1367 223.451 34.375C223.451 33.4023 223.041 32.5762 222.221 31.8965C221.412 31.2051 220.416 30.8594 219.232 30.8594C217.826 30.8594 216.596 31.2578 215.541 32.0547C214.486 32.8398 213.959 33.8477 213.959 35.0781C213.959 36.5195 214.645 37.7617 216.016 38.8047C217.398 39.8359 219.057 40.3516 220.99 40.3516C223.557 40.3516 225.432 39.8828 226.615 38.9453L225.561 41.4062H220.814C217.475 41.4062 214.967 40.9082 213.291 39.9121C211.627 38.916 210.795 37.4219 210.795 35.4297C210.795 34.375 211.199 33.4141 212.008 32.5469C212.816 31.668 213.877 31.0469 215.189 30.6836C214.018 30.0977 213.432 29.3359 213.432 28.3984C213.432 27.7188 213.789 27.1387 214.504 26.6582C215.219 26.1777 216.092 25.9375 217.123 25.9375H221.342V23.125H209.811V21.7188H228.83V23.125ZM235.229 37.5391C236.189 37.5391 237.016 37.0645 237.707 36.1152C238.398 35.166 238.744 34 238.744 32.6172C238.744 31.2344 238.398 30.0684 237.707 29.1191C237.027 28.1699 236.201 27.6953 235.229 27.6953C234.268 27.6953 233.441 28.1816 232.75 29.1543C232.059 30.127 231.713 31.2812 231.713 32.6172C231.713 33.9648 232.059 35.125 232.75 36.0977C233.453 37.0586 234.279 37.5391 235.229 37.5391ZM244.369 30.5078C243.666 29.9336 242.875 29.459 241.996 29.084C241.117 28.6973 240.15 28.4102 239.096 28.2227C239.986 28.6328 240.678 29.2305 241.17 30.0156C241.662 30.8008 241.908 31.668 241.908 32.6172C241.908 34.2695 241.258 35.6816 239.957 36.8535C238.668 38.0137 237.092 38.5938 235.229 38.5938C233.389 38.5938 231.812 38.0078 230.5 36.8359C229.199 35.6523 228.549 34.2461 228.549 32.6172C228.549 30.9883 229.199 29.5879 230.5 28.416C231.812 27.2324 233.389 26.6406 235.229 26.6406C237.314 26.6406 239.119 26.8457 240.643 27.2559C242.166 27.666 243.408 28.2812 244.369 29.1016V23.125H227.494V21.7188H251.365V23.125H247.533V37.8906C247.533 38.2773 247.779 38.6113 248.271 38.8926C248.775 39.1621 249.35 39.2969 249.994 39.2969V40H241.908V39.2969C242.564 39.2969 243.139 39.1621 243.631 38.8926C244.123 38.623 244.369 38.2891 244.369 37.8906V30.5078ZM259.732 23.125H255.9V37.8906C255.9 38.2773 256.146 38.6113 256.639 38.8926C257.143 39.1621 257.717 39.2969 258.361 39.2969V40H250.275V39.2969C250.932 39.2969 251.506 39.1621 251.998 38.8926C252.49 38.623 252.736 38.2891 252.736 37.8906V23.125H250.029V21.7188H259.732V23.125ZM255.9 21.3672H252.736V20.3477C252.736 18.8477 252.391 17.5762 251.699 16.5332C251.02 15.4902 250.193 14.9688 249.221 14.9688C248.436 14.9688 247.773 15.2734 247.234 15.8828C246.684 16.4805 246.408 17.1836 246.408 17.9922C246.408 19.1289 246.877 20.2539 247.814 21.3672H244.65C244.24 21.0391 243.906 20.582 243.648 19.9961C243.379 19.3984 243.244 18.7891 243.244 18.168C243.244 16.9844 243.748 15.9883 244.756 15.1797C245.764 14.3594 247.018 13.9492 248.518 13.9492C250.58 13.9492 252.326 14.5703 253.756 15.8125C255.186 17.043 255.9 18.5547 255.9 20.3477V21.3672Z" fill="white"/>
</svg>
